# Blender v3.2.1 OBJ File: ''
# www.blender.org
mtllib capsule.mtl
o Sphere_Sphere.001
v 0.000000 -0.229610 -0.923880
v 0.000000 -0.554328 -0.382683
v 0.382683 -0.000000 -0.923880
v 0.353553 -0.229610 -0.853553
v 0.270598 -0.424264 -0.653281
v 0.146447 -0.554328 -0.353553
v 0.707107 -0.000000 -0.707107
v 0.653282 -0.229610 -0.653281
v 0.500000 -0.424264 -0.500000
v 0.270598 -0.554328 -0.270598
v 0.923880 -0.000000 -0.382683
v 0.853554 -0.229610 -0.353553
v 0.653282 -0.424264 -0.270598
v 0.353554 -0.554328 -0.146447
v 1.000000 -0.000000 0.000000
v 0.923880 -0.229610 0.000000
v 0.707107 -0.424264 0.000000
v 0.382684 -0.554328 0.000000
v 0.923879 -0.000000 0.382684
v 0.853553 -0.229610 0.353554
v 0.653282 -0.424264 0.270598
v 0.353553 -0.554328 0.146447
v 0.707107 -0.000000 0.707107
v 0.653281 -0.229610 0.653282
v 0.500000 -0.424264 0.500000
v 0.270598 -0.554328 0.270598
v 0.382683 -0.000000 0.923880
v 0.353553 -0.229610 0.853554
v 0.270598 -0.424264 0.653282
v 0.146447 -0.554328 0.353554
v -0.000000 -0.000000 1.000000
v -0.000000 -0.229610 0.923880
v -0.000000 -0.424264 0.707107
v -0.000000 -0.554328 0.382684
v -0.382684 -0.000000 0.923880
v -0.353554 -0.229610 0.853553
v -0.270598 -0.424264 0.653282
v -0.146447 -0.554328 0.353553
v -0.707107 -0.000000 0.707107
v -0.653282 -0.229610 0.653281
v -0.500000 -0.424264 0.500000
v -0.270598 -0.554328 0.270598
v 0.000000 -0.600000 0.000000
v -0.923880 -0.000000 0.382683
v -0.853553 -0.229610 0.353553
v -0.653282 -0.424264 0.270598
v -0.353553 -0.554328 0.146447
v -1.000000 -0.000000 -0.000000
v -0.923879 -0.229610 -0.000000
v -0.707107 -0.424264 -0.000000
v -0.382683 -0.554328 -0.000000
v -0.923879 -0.000000 -0.382684
v -0.853553 -0.229610 -0.353554
v -0.653281 -0.424264 -0.270598
v -0.353553 -0.554328 -0.146447
v -0.707106 -0.000000 -0.707107
v -0.653281 -0.229610 -0.653282
v -0.500000 -0.424264 -0.500000
v -0.270598 -0.554328 -0.270598
v -0.382683 -0.000000 -0.923880
v -0.353553 -0.229610 -0.853553
v -0.270598 -0.424264 -0.653281
v -0.146446 -0.554328 -0.353553
v 0.000001 -0.000000 -1.000000
v 0.000000 -0.424264 -0.707107
v -0.000000 2.824264 -0.707107
v -0.000000 2.629610 -0.923880
v 0.146447 2.954328 -0.353554
v 0.270598 2.824264 -0.653282
v 0.353553 2.629610 -0.853553
v 0.382683 2.400000 -0.923880
v 0.270598 2.954328 -0.270598
v 0.500000 2.824264 -0.500000
v 0.653282 2.629610 -0.653282
v 0.707107 2.400000 -0.707107
v 0.353553 2.954328 -0.146447
v 0.653282 2.824264 -0.270598
v 0.853554 2.629610 -0.353553
v 0.923880 2.400000 -0.382683
v 0.382683 2.954328 0.000000
v 0.707107 2.824264 0.000000
v 0.923880 2.629610 0.000000
v 1.000000 2.400000 0.000000
v 0.353553 2.954328 0.146447
v 0.653282 2.824264 0.270598
v 0.853553 2.629610 0.353554
v 0.923879 2.400000 0.382684
v 0.270598 2.954328 0.270598
v 0.500000 2.824264 0.500000
v 0.653281 2.629610 0.653282
v 0.707107 2.400000 0.707107
v 0.146446 2.954328 0.353553
v 0.270598 2.824264 0.653282
v 0.353553 2.629610 0.853554
v 0.382683 2.400000 0.923880
v -0.000000 3.000000 0.000000
v -0.000000 2.954328 0.382683
v -0.000000 2.824264 0.707107
v -0.000000 2.629610 0.923880
v -0.000000 2.400000 1.000000
v -0.146447 2.954328 0.353553
v -0.270598 2.824264 0.653282
v -0.353554 2.629610 0.853553
v -0.382684 2.400000 0.923879
v -0.270598 2.954328 0.270598
v -0.500000 2.824264 0.500000
v -0.653282 2.629610 0.653281
v -0.707107 2.400000 0.707107
v -0.353554 2.954328 0.146447
v -0.653282 2.824264 0.270598
v -0.853553 2.629610 0.353553
v -0.923880 2.400000 0.382683
v -0.382684 2.954328 -0.000000
v -0.707107 2.824264 -0.000000
v -0.923879 2.629610 -0.000000
v -1.000000 2.400000 -0.000000
v -0.353553 2.954328 -0.146447
v -0.653281 2.824264 -0.270598
v -0.853553 2.629610 -0.353554
v -0.923879 2.400000 -0.382684
v -0.270598 2.954328 -0.270598
v -0.500000 2.824264 -0.500000
v -0.653281 2.629610 -0.653282
v -0.707106 2.400000 -0.707107
v -0.146447 2.954328 -0.353554
v -0.270598 2.824264 -0.653281
v -0.353553 2.629610 -0.853553
v -0.382683 2.400000 -0.923880
v 0.000001 2.400000 -1.000000
v 0.000000 2.954328 -0.382683
vt 0.750000 0.125000
vt 0.750000 0.250000
vt 0.687500 0.250000
vt 0.687500 0.125000
vt 0.750000 0.375000
vt 0.750000 0.500000
vt 0.687500 0.500000
vt 0.687500 0.375000
vt 0.718750 0.000000
vt 0.625000 0.250000
vt 0.625000 0.125000
vt 0.625000 0.500000
vt 0.625000 0.375000
vt 0.656250 0.000000
vt 0.593750 0.000000
vt 0.562500 0.125000
vt 0.562500 0.375000
vt 0.562500 0.250000
vt 0.562500 0.500000
vt 0.500000 0.375000
vt 0.500000 0.250000
vt 0.500000 0.125000
vt 0.500000 0.500000
vt 0.531250 0.000000
vt 0.437500 0.250000
vt 0.437500 0.125000
vt 0.437500 0.500000
vt 0.437500 0.375000
vt 0.468750 0.000000
vt 0.375000 0.500000
vt 0.375000 0.375000
vt 0.406250 0.000000
vt 0.375000 0.125000
vt 0.375000 0.250000
vt 0.343750 0.000000
vt 0.312500 0.125000
vt 0.312500 0.375000
vt 0.312500 0.250000
vt 0.312500 0.500000
vt 0.250000 0.250000
vt 0.250000 0.125000
vt 0.250000 0.500000
vt 0.250000 0.375000
vt 0.281250 0.000000
vt 0.187500 0.250000
vt 0.187500 0.125000
vt 0.187500 0.500000
vt 0.187500 0.375000
vt 0.218750 0.000000
vt 0.156250 0.000000
vt 0.125000 0.125000
vt 0.125000 0.375000
vt 0.125000 0.250000
vt 0.125000 0.500000
vt 0.093750 0.000000
vt 0.062500 0.125000
vt 0.062500 0.375000
vt 0.062500 0.250000
vt 0.062500 0.500000
vt 0.000000 0.250000
vt 0.000000 0.125000
vt 0.000000 0.500000
vt 0.000000 0.375000
vt 0.031250 0.000000
vt 1.000000 0.125000
vt 1.000000 0.250000
vt 0.937500 0.250000
vt 0.937500 0.125000
vt 1.000000 0.375000
vt 1.000000 0.500000
vt 0.937500 0.500000
vt 0.937500 0.375000
vt 0.875000 0.500000
vt 0.937500 0.500000
vt 0.875000 0.500000
vt 0.250000 0.500000
vt 0.187500 0.500000
vt 0.968750 0.000000
vt 0.562500 0.500000
vt 0.500000 0.500000
vt 0.312500 0.500000
vt 0.437500 0.500000
vt 0.906250 0.000000
vt 0.875000 0.125000
vt 0.875000 0.375000
vt 0.875000 0.250000
vt 0.750000 0.500000
vt 0.687500 0.500000
vt 0.062500 0.500000
vt 0.000000 0.500000
vt 0.125000 0.500000
vt 0.812500 0.375000
vt 0.812500 0.250000
vt 0.625000 0.500000
vt 0.812500 0.500000
vt 0.812500 0.500000
vt 0.812500 0.125000
vt 0.375000 0.500000
vt 0.843750 0.000000
vt 0.781250 0.000000
vt 1.000000 0.500000
vt 0.750000 0.625000
vt 0.687500 0.625000
vt 0.750000 0.750000
vt 0.750000 0.875000
vt 0.687500 0.875000
vt 0.687500 0.750000
vt 0.718750 1.000000
vt 0.625000 0.750000
vt 0.625000 0.625000
vt 0.656250 1.000000
vt 0.625000 0.875000
vt 0.593750 1.000000
vt 0.562500 0.875000
vt 0.562500 0.625000
vt 0.562500 0.750000
vt 0.500000 0.625000
vt 0.500000 0.875000
vt 0.500000 0.750000
vt 0.531250 1.000000
vt 0.437500 0.750000
vt 0.437500 0.625000
vt 0.468750 1.000000
vt 0.437500 0.875000
vt 0.375000 0.750000
vt 0.375000 0.625000
vt 0.406250 1.000000
vt 0.375000 0.875000
vt 0.312500 0.625000
vt 0.312500 0.875000
vt 0.312500 0.750000
vt 0.343750 1.000000
vt 0.250000 0.625000
vt 0.250000 0.875000
vt 0.250000 0.750000
vt 0.281250 1.000000
vt 0.187500 0.750000
vt 0.187500 0.625000
vt 0.218750 1.000000
vt 0.187500 0.875000
vt 0.125000 0.750000
vt 0.125000 0.625000
vt 0.156250 1.000000
vt 0.125000 0.875000
vt 0.062500 0.625000
vt 0.062500 0.875000
vt 0.062500 0.750000
vt 0.093750 1.000000
vt 0.000000 0.875000
vt 0.000000 0.750000
vt 0.000000 0.625000
vt 0.031250 1.000000
vt 1.000000 0.625000
vt 1.000000 0.750000
vt 0.937500 0.750000
vt 0.937500 0.625000
vt 1.000000 0.875000
vt 0.968750 1.000000
vt 0.937500 0.875000
vt 0.906250 1.000000
vt 0.875000 0.875000
vt 0.875000 0.625000
vt 0.875000 0.750000
vt 0.812500 0.625000
vt 0.812500 0.875000
vt 0.812500 0.750000
vt 0.843750 1.000000
vt 0.781250 1.000000
vn -0.0000 -0.9649 -0.2627
vn -0.0000 -0.8394 -0.5435
vn 0.2080 -0.8394 -0.5022
vn 0.1005 -0.9649 -0.2427
vn -0.0000 -0.5335 -0.8458
vn 0.0000 -0.1563 -0.9877
vn 0.3780 -0.1563 -0.9125
vn 0.3237 -0.5335 -0.7814
vn -0.0000 -1.0000 0.0000
vn 0.3843 -0.8394 -0.3843
vn 0.1857 -0.9649 -0.1857
vn 0.6984 -0.1563 -0.6984
vn 0.5980 -0.5335 -0.5980
vn 0.2427 -0.9649 -0.1005
vn 0.7814 -0.5335 -0.3237
vn 0.5022 -0.8394 -0.2080
vn 0.9125 -0.1563 -0.3780
vn 0.8458 -0.5335 0.0000
vn 0.5435 -0.8394 0.0000
vn 0.2627 -0.9649 0.0000
vn 0.9877 -0.1563 0.0000
vn 0.5022 -0.8394 0.2080
vn 0.2427 -0.9649 0.1005
vn 0.9125 -0.1563 0.3780
vn 0.7814 -0.5335 0.3237
vn 0.6984 -0.1563 0.6984
vn 0.5980 -0.5335 0.5981
vn 0.1857 -0.9649 0.1857
vn 0.3843 -0.8394 0.3843
vn 0.1005 -0.9649 0.2427
vn 0.3237 -0.5335 0.7814
vn 0.2080 -0.8394 0.5022
vn 0.3780 -0.1563 0.9125
vn -0.0000 -0.8394 0.5435
vn -0.0000 -0.9649 0.2627
vn -0.0000 -0.1563 0.9877
vn -0.0000 -0.5335 0.8458
vn -0.2080 -0.8394 0.5022
vn -0.1005 -0.9649 0.2427
vn -0.3780 -0.1563 0.9125
vn -0.3237 -0.5335 0.7814
vn -0.1857 -0.9649 0.1857
vn -0.5981 -0.5335 0.5980
vn -0.3843 -0.8394 0.3843
vn -0.6984 -0.1563 0.6984
vn -0.2427 -0.9649 0.1005
vn -0.7814 -0.5335 0.3237
vn -0.5022 -0.8394 0.2080
vn -0.9125 -0.1563 0.3780
vn -0.5435 -0.8394 -0.0000
vn -0.2627 -0.9649 -0.0000
vn -0.9877 -0.1563 -0.0000
vn -0.8458 -0.5335 -0.0000
vn -0.5022 -0.8394 -0.2080
vn -0.2427 -0.9649 -0.1005
vn -0.9125 -0.1563 -0.3780
vn -0.7814 -0.5335 -0.3237
vn -0.6984 -0.1563 -0.6984
vn -0.9125 0.1563 -0.3780
vn -0.6984 0.1563 -0.6984
vn -0.0000 0.1563 0.9877
vn -0.3780 0.1563 0.9125
vn 0.9125 0.1563 -0.3780
vn 0.9877 0.1563 0.0000
vn 0.3780 0.1563 0.9125
vn 0.9125 0.1563 0.3780
vn -0.1857 -0.9649 -0.1857
vn -0.5980 -0.5335 -0.5981
vn -0.3843 -0.8394 -0.3843
vn 0.0000 0.1563 -0.9877
vn 0.3780 0.1563 -0.9125
vn -0.9125 0.1563 0.3780
vn -0.9877 0.1563 -0.0000
vn -0.6984 0.1563 0.6984
vn -0.3237 -0.5335 -0.7814
vn -0.2080 -0.8394 -0.5022
vn 0.6984 0.1563 -0.6984
vn -0.3780 -0.1563 -0.9125
vn -0.3780 0.1563 -0.9125
vn -0.1005 -0.9649 -0.2427
vn 0.6984 0.1563 0.6984
vn -0.0000 0.5335 -0.8458
vn 0.3237 0.5335 -0.7814
vn -0.0000 0.8394 -0.5435
vn 0.0000 0.9649 -0.2627
vn 0.1005 0.9649 -0.2427
vn 0.2080 0.8394 -0.5022
vn -0.0000 1.0000 0.0000
vn 0.3843 0.8394 -0.3843
vn 0.5980 0.5335 -0.5981
vn 0.1857 0.9649 -0.1857
vn 0.2427 0.9649 -0.1005
vn 0.7814 0.5335 -0.3237
vn 0.5022 0.8394 -0.2080
vn 0.8458 0.5335 0.0000
vn 0.2627 0.9649 0.0000
vn 0.5435 0.8394 0.0000
vn 0.5022 0.8394 0.2080
vn 0.7814 0.5335 0.3237
vn 0.2427 0.9649 0.1005
vn 0.3843 0.8394 0.3843
vn 0.5980 0.5335 0.5981
vn 0.1857 0.9649 0.1857
vn 0.3237 0.5335 0.7814
vn 0.1005 0.9649 0.2427
vn 0.2080 0.8394 0.5022
vn -0.0000 0.5335 0.8458
vn -0.0000 0.9649 0.2627
vn -0.0000 0.8394 0.5435
vn -0.2080 0.8394 0.5022
vn -0.3237 0.5335 0.7814
vn -0.1005 0.9649 0.2427
vn -0.3843 0.8394 0.3843
vn -0.5981 0.5335 0.5980
vn -0.1857 0.9649 0.1857
vn -0.7814 0.5335 0.3237
vn -0.2427 0.9649 0.1005
vn -0.5022 0.8394 0.2080
vn -0.2627 0.9649 0.0000
vn -0.5435 0.8394 0.0000
vn -0.8458 0.5335 -0.0000
vn -0.5022 0.8394 -0.2080
vn -0.7814 0.5335 -0.3237
vn -0.2427 0.9649 -0.1005
vn -0.1857 0.9649 -0.1857
vn -0.5980 0.5335 -0.5981
vn -0.3843 0.8394 -0.3843
vn -0.3237 0.5335 -0.7814
vn -0.1005 0.9649 -0.2427
vn -0.2080 0.8394 -0.5022
usemtl None
s 1
f 2/1/1 65/2/2 5/3/3 6/4/4
f 1/5/5 64/6/6 3/7/7 4/8/8
f 43/9/9 2/1/1 6/4/4
f 65/2/2 1/5/5 4/8/8 5/3/3
f 6/4/4 5/3/3 9/10/10 10/11/11
f 4/8/8 3/7/7 7/12/12 8/13/13
f 43/14/9 6/4/4 10/11/11
f 5/3/3 4/8/8 8/13/13 9/10/10
f 43/15/9 10/11/11 14/16/14
f 9/10/10 8/13/13 12/17/15 13/18/16
f 10/11/11 9/10/10 13/18/16 14/16/14
f 8/13/13 7/12/12 11/19/17 12/17/15
f 13/18/16 12/17/15 16/20/18 17/21/19
f 14/16/14 13/18/16 17/21/19 18/22/20
f 12/17/15 11/19/17 15/23/21 16/20/18
f 43/24/9 14/16/14 18/22/20
f 18/22/20 17/21/19 21/25/22 22/26/23
f 16/20/18 15/23/21 19/27/24 20/28/25
f 43/29/9 18/22/20 22/26/23
f 17/21/19 16/20/18 20/28/25 21/25/22
f 20/28/25 19/27/24 23/30/26 24/31/27
f 43/32/9 22/26/23 26/33/28
f 21/25/22 20/28/25 24/31/27 25/34/29
f 22/26/23 21/25/22 25/34/29 26/33/28
f 43/35/9 26/33/28 30/36/30
f 25/34/29 24/31/27 28/37/31 29/38/32
f 26/33/28 25/34/29 29/38/32 30/36/30
f 24/31/27 23/30/26 27/39/33 28/37/31
f 30/36/30 29/38/32 33/40/34 34/41/35
f 28/37/31 27/39/33 31/42/36 32/43/37
f 43/44/9 30/36/30 34/41/35
f 29/38/32 28/37/31 32/43/37 33/40/34
f 34/41/35 33/40/34 37/45/38 38/46/39
f 32/43/37 31/42/36 35/47/40 36/48/41
f 43/49/9 34/41/35 38/46/39
f 33/40/34 32/43/37 36/48/41 37/45/38
f 43/50/9 38/46/39 42/51/42
f 37/45/38 36/48/41 40/52/43 41/53/44
f 38/46/39 37/45/38 41/53/44 42/51/42
f 36/48/41 35/47/40 39/54/45 40/52/43
f 43/55/9 42/51/42 47/56/46
f 41/53/44 40/52/43 45/57/47 46/58/48
f 42/51/42 41/53/44 46/58/48 47/56/46
f 40/52/43 39/54/45 44/59/49 45/57/47
f 47/56/46 46/58/48 50/60/50 51/61/51
f 45/57/47 44/59/49 48/62/52 49/63/53
f 43/64/9 47/56/46 51/61/51
f 46/58/48 45/57/47 49/63/53 50/60/50
f 51/65/51 50/66/50 54/67/54 55/68/55
f 49/69/53 48/70/52 52/71/56 53/72/57
f 56/73/58 52/71/56 120/74/59 124/75/60
f 35/47/40 31/42/36 100/76/61 104/77/62
f 43/78/9 51/65/51 55/68/55
f 50/66/50 49/69/53 53/72/57 54/67/54
f 15/23/21 11/19/17 79/79/63 83/80/64
f 31/42/36 27/39/33 95/81/65 100/76/61
f 19/27/24 15/23/21 83/80/64 87/82/66
f 43/83/9 55/68/55 59/84/67
f 54/67/54 53/72/57 57/85/68 58/86/69
f 3/7/7 64/6/6 129/87/70 71/88/71
f 48/62/52 44/59/49 112/89/72 116/90/73
f 55/68/55 54/67/54 58/86/69 59/84/67
f 53/72/57 52/71/56 56/73/58 57/85/68
f 44/59/49 39/54/45 108/91/74 112/89/72
f 58/86/69 57/85/68 61/92/75 62/93/76
f 7/12/12 3/7/7 71/88/71 75/94/77
f 60/95/78 56/73/58 124/75/60 128/96/79
f 59/84/67 58/86/69 62/93/76 63/97/80
f 57/85/68 56/73/58 60/95/78 61/92/75
f 11/19/17 7/12/12 75/94/77 79/79/63
f 27/39/33 23/30/26 91/98/81 95/81/65
f 43/99/9 59/84/67 63/97/80
f 63/97/80 62/93/76 65/2/2 2/1/1
f 61/92/75 60/95/78 64/6/6 1/5/5
f 64/6/6 60/95/78 128/96/79 129/87/70
f 23/30/26 19/27/24 87/82/66 91/98/81
f 43/100/9 63/97/80 2/1/1
f 62/93/76 61/92/75 1/5/5 65/2/2
f 39/54/45 35/47/40 104/77/62 108/91/74
f 52/71/56 48/70/52 116/101/73 120/74/59
f 129/87/70 67/102/82 70/103/83 71/88/71
f 66/104/84 130/105/85 68/106/86 69/107/87
f 67/102/82 66/104/84 69/107/87 70/103/83
f 130/105/85 96/108/88 68/106/86
f 70/103/83 69/107/87 73/109/89 74/110/90
f 68/106/86 96/111/88 72/112/91
f 71/88/71 70/103/83 74/110/90 75/94/77
f 69/107/87 68/106/86 72/112/91 73/109/89
f 72/112/91 96/113/88 76/114/92
f 75/94/77 74/110/90 78/115/93 79/79/63
f 73/109/89 72/112/91 76/114/92 77/116/94
f 74/110/90 73/109/89 77/116/94 78/115/93
f 79/79/63 78/115/93 82/117/95 83/80/64
f 77/116/94 76/114/92 80/118/96 81/119/97
f 78/115/93 77/116/94 81/119/97 82/117/95
f 76/114/92 96/120/88 80/118/96
f 82/117/95 81/119/97 85/121/98 86/122/99
f 80/118/96 96/123/88 84/124/100
f 83/80/64 82/117/95 86/122/99 87/82/66
f 81/119/97 80/118/96 84/124/100 85/121/98
f 86/122/99 85/121/98 89/125/101 90/126/102
f 84/124/100 96/127/88 88/128/103
f 87/82/66 86/122/99 90/126/102 91/98/81
f 85/121/98 84/124/100 88/128/103 89/125/101
f 91/98/81 90/126/102 94/129/104 95/81/65
f 89/125/101 88/128/103 92/130/105 93/131/106
f 90/126/102 89/125/101 93/131/106 94/129/104
f 88/128/103 96/132/88 92/130/105
f 95/81/65 94/129/104 99/133/107 100/76/61
f 93/131/106 92/130/105 97/134/108 98/135/109
f 94/129/104 93/131/106 98/135/109 99/133/107
f 92/130/105 96/136/88 97/134/108
f 99/133/107 98/135/109 102/137/110 103/138/111
f 97/134/108 96/139/88 101/140/112
f 100/76/61 99/133/107 103/138/111 104/77/62
f 98/135/109 97/134/108 101/140/112 102/137/110
f 103/138/111 102/137/110 106/141/113 107/142/114
f 101/140/112 96/143/88 105/144/115
f 104/77/62 103/138/111 107/142/114 108/91/74
f 102/137/110 101/140/112 105/144/115 106/141/113
f 108/91/74 107/142/114 111/145/116 112/89/72
f 106/141/113 105/144/115 109/146/117 110/147/118
f 107/142/114 106/141/113 110/147/118 111/145/116
f 105/144/115 96/148/88 109/146/117
f 110/147/118 109/146/117 113/149/119 114/150/120
f 111/145/116 110/147/118 114/150/120 115/151/121
f 109/146/117 96/152/88 113/149/119
f 112/89/72 111/145/116 115/151/121 116/90/73
f 115/153/121 114/154/120 118/155/122 119/156/123
f 113/157/119 96/158/88 117/159/124
f 116/101/73 115/153/121 119/156/123 120/74/59
f 114/154/120 113/157/119 117/159/124 118/155/122
f 117/159/124 96/160/88 121/161/125
f 120/74/59 119/156/123 123/162/126 124/75/60
f 118/155/122 117/159/124 121/161/125 122/163/127
f 119/156/123 118/155/122 122/163/127 123/162/126
f 124/75/60 123/162/126 127/164/128 128/96/79
f 122/163/127 121/161/125 125/165/129 126/166/130
f 123/162/126 122/163/127 126/166/130 127/164/128
f 121/161/125 96/167/88 125/165/129
f 127/164/128 126/166/130 66/104/84 67/102/82
f 125/165/129 96/168/88 130/105/85
f 128/96/79 127/164/128 67/102/82 129/87/70
f 126/166/130 125/165/129 130/105/85 66/104/84
