{"accessors":[{"bufferView":0,"byteOffset":0,"componentType":5126,"count":2232,"max":[7.757716,4.289531,7.216827],"min":[-12.986033,-2.085469,-6.970673],"normalized":false,"type":"VEC3"},{"bufferView":1,"byteOffset":0,"componentType":5126,"count":2232,"max":[1,0.715355,1,1],"min":[-1,-0.000037,-1,-1],"normalized":false,"type":"VEC4"},{"bufferView":2,"byteOffset":0,"componentType":5126,"count":2232,"max":[1,1,1],"min":[-1,-1,-1],"normalized":false,"type":"VEC3"},{"bufferView":3,"byteOffset":0,"componentType":5126,"count":2232,"max":[6.40625,0.644337],"min":[-1.386719,-6.40625],"normalized":false,"type":"VEC2"},{"bufferView":4,"byteOffset":0,"componentType":5125,"count":3348,"max":[2231],"min":[0],"normalized":false,"type":"SCALAR"},{"bufferView":5,"byteOffset":0,"componentType":5126,"count":48,"max":[-1.861034,1.664531,-0.408173],"min":[-5.111033,-2.085469,-2.408173],"normalized":false,"type":"VEC3"},{"bufferView":6,"byteOffset":0,"componentType":5126,"count":48,"max":[1,0.000046,1,1],"min":[-0.000015,-0.000015,-0.000046,-1],"normalized":false,"type":"VEC4"},{"bufferView":7,"byteOffset":0,"componentType":5126,"count":48,"max":[1,1,1],"min":[-1,-1,-1],"normalized":false,"type":"VEC3"},{"bufferView":8,"byteOffset":0,"componentType":5126,"count":48,"max":[6.875,0],"min":[0,-6.875],"normalized":false,"type":"VEC2"},{"bufferView":9,"byteOffset":0,"componentType":5125,"count":72,"max":[47],"min":[0],"normalized":false,"type":"SCALAR"},{"bufferView":10,"byteOffset":0,"componentType":5126,"count":216,"max":[7.388967,-1.835469,6.841827],"min":[-5.111033,-2.085469,-6.595673],"normalized":false,"type":"VEC3"},{"bufferView":11,"byteOffset":0,"componentType":5126,"count":216,"max":[1,0.000046,1,1],"min":[-0.000015,-0.000015,-0.000046,-1],"normalized":false,"type":"VEC4"},{"bufferView":12,"byteOffset":0,"componentType":5126,"count":216,"max":[1,1,1],"min":[-1,-1,-1],"normalized":false,"type":"VEC3"},{"bufferView":13,"byteOffset":0,"componentType":5126,"count":216,"max":[6.328125,0],"min":[-1.308594,-6.328125],"normalized":false,"type":"VEC2"},{"bufferView":14,"byteOffset":0,"componentType":5125,"count":324,"max":[215],"min":[0],"normalized":false,"type":"SCALAR"},{"bufferView":15,"byteOffset":0,"componentType":5126,"count":360,"max":[7.388967,0.289531,6.654327],"min":[-5.111033,-2.085469,-6.533173],"normalized":false,"type":"VEC3"},{"bufferView":16,"byteOffset":0,"componentType":5126,"count":360,"max":[1,0.000046,1,1],"min":[-0.000015,-0.000015,-0.000046,-1],"normalized":false,"type":"VEC4"},{"bufferView":17,"byteOffset":0,"componentType":5126,"count":360,"max":[1,1,1],"min":[-1,-1,-1],"normalized":false,"type":"VEC3"},{"bufferView":18,"byteOffset":0,"componentType":5126,"count":360,"max":[324,0],"min":[-66,-324],"normalized":false,"type":"VEC2"},{"bufferView":19,"byteOffset":0,"componentType":5125,"count":540,"max":[359],"min":[0],"normalized":false,"type":"SCALAR"},{"bufferView":20,"byteOffset":0,"componentType":5126,"count":264,"max":[7.388967,1.664531,6.841827],"min":[-5.111033,-2.085469,-6.595673],"normalized":false,"type":"VEC3"},{"bufferView":21,"byteOffset":0,"componentType":5126,"count":264,"max":[1,0.000046,1,1],"min":[-0.000015,-0.000015,-0.000046,-1],"normalized":false,"type":"VEC4"},{"bufferView":22,"byteOffset":0,"componentType":5126,"count":264,"max":[1,1,1],"min":[-1,-1,-1],"normalized":false,"type":"VEC3"},{"bufferView":23,"byteOffset":0,"componentType":5126,"count":264,"max":[12.65625,0],"min":[-2.617187,-12.65625],"normalized":false,"type":"VEC2"},{"bufferView":24,"byteOffset":0,"componentType":5125,"count":396,"max":[263],"min":[0],"normalized":false,"type":"SCALAR"},{"bufferView":25,"byteOffset":0,"componentType":5126,"count":4680,"max":[7.7577,4.2895,7.2168],"min":[-12.986,-2.0855,-6.9707],"normalized":false,"type":"VEC3"},{"bufferView":26,"byteOffset":0,"componentType":5125,"count":4680,"max":[4679],"min":[0],"normalized":false,"type":"SCALAR"}],"asset":{"generator":"Godot Engine v4.1.1.stable.official@bd6af8e0ea69167dd0627f3bd54f9105bda0f8b5","version":"2.0"},"bufferViews":[{"buffer":0,"byteLength":26784,"byteOffset":0},{"buffer":0,"byteLength":35712,"byteOffset":26784},{"buffer":0,"byteLength":26784,"byteOffset":62496},{"buffer":0,"byteLength":17856,"byteOffset":89280},{"buffer":0,"byteLength":13392,"byteOffset":107136},{"buffer":0,"byteLength":576,"byteOffset":120528},{"buffer":0,"byteLength":768,"byteOffset":121104},{"buffer":0,"byteLength":576,"byteOffset":121872},{"buffer":0,"byteLength":384,"byteOffset":122448},{"buffer":0,"byteLength":288,"byteOffset":122832},{"buffer":0,"byteLength":2592,"byteOffset":123120},{"buffer":0,"byteLength":3456,"byteOffset":125712},{"buffer":0,"byteLength":2592,"byteOffset":129168},{"buffer":0,"byteLength":1728,"byteOffset":131760},{"buffer":0,"byteLength":1296,"byteOffset":133488},{"buffer":0,"byteLength":4320,"byteOffset":134784},{"buffer":0,"byteLength":5760,"byteOffset":139104},{"buffer":0,"byteLength":4320,"byteOffset":144864},{"buffer":0,"byteLength":2880,"byteOffset":149184},{"buffer":0,"byteLength":2160,"byteOffset":152064},{"buffer":0,"byteLength":3168,"byteOffset":154224},{"buffer":0,"byteLength":4224,"byteOffset":157392},{"buffer":0,"byteLength":3168,"byteOffset":161616},{"buffer":0,"byteLength":2112,"byteOffset":164784},{"buffer":0,"byteLength":1584,"byteOffset":166896},{"buffer":0,"byteLength":56160,"byteOffset":168480},{"buffer":0,"byteLength":18720,"byteOffset":224640}],"buffers":[{"byteLength":243360,"uri":"housenode0.bin"}],"extensions":{"OMI_collider":{"colliders":[{"mesh":1,"type":"trimesh"}]}},"extensionsUsed":["OMI_collider","OMI_physics_body"],"images":[{"uri":"textures%2F_albedo000.png"},{"uri":"textures%2F_albedo002.png"},{"uri":"textures%2F_albedo003.png"},{"uri":"textures%2F_albedo004.png"}],"materials":[{"extensions":{},"pbrMetallicRoughness":{"baseColorFactor":[0.99999988079071,0.99999988079071,0.99999988079071,1],"baseColorTexture":{"index":0},"metallicFactor":0,"roughnessFactor":1}},{"extensions":{},"pbrMetallicRoughness":{"baseColorFactor":[0.99999988079071,0.99999988079071,0.99999988079071,1],"baseColorTexture":{"index":1},"metallicFactor":0,"roughnessFactor":1}},{"extensions":{},"pbrMetallicRoughness":{"baseColorFactor":[0.99999988079071,0.99999988079071,0.99999988079071,1],"baseColorTexture":{"index":2},"metallicFactor":0,"roughnessFactor":1}},{"extensions":{},"pbrMetallicRoughness":{"baseColorFactor":[0.99999988079071,0.99999988079071,0.99999988079071,1],"metallicFactor":0,"roughnessFactor":1}},{"extensions":{},"pbrMetallicRoughness":{"baseColorFactor":[0.99999988079071,0.99999988079071,0.99999988079071,1],"baseColorTexture":{"index":3},"metallicFactor":0,"roughnessFactor":1}}],"meshes":[{"extras":{"targetNames":[]},"primitives":[{"attributes":{"NORMAL":2,"POSITION":0,"TANGENT":1,"TEXCOORD_0":3},"indices":4,"material":0,"mode":4},{"attributes":{"NORMAL":7,"POSITION":5,"TANGENT":6,"TEXCOORD_0":8},"indices":9,"material":1,"mode":4},{"attributes":{"NORMAL":12,"POSITION":10,"TANGENT":11,"TEXCOORD_0":13},"indices":14,"material":2,"mode":4},{"attributes":{"NORMAL":17,"POSITION":15,"TANGENT":16,"TEXCOORD_0":18},"indices":19,"material":3,"mode":4},{"attributes":{"NORMAL":22,"POSITION":20,"TANGENT":21,"TEXCOORD_0":23},"indices":24,"material":4,"mode":4}]},{"extras":{"targetNames":[]},"primitives":[{"attributes":{"POSITION":25},"indices":26,"mode":4}]}],"nodes":[{"children":[1],"extensions":{},"name":"TBLoader"},{"children":[2,3],"extensions":{},"name":"Default Layer","translation":[12.8610334396362,2.08546948432922,2.40817308425903]},{"extensions":{},"mesh":0,"name":"entity_0_geometry"},{"children":[4],"extensions":{"OMI_physics_body":{"type":"static"}},"name":"entity_0_geometry_col"},{"extensions":{"OMI_collider":{"collider":0}},"name":"CollisionShape3D"}],"samplers":[{"magFilter":9729,"minFilter":9987,"wrapS":10497,"wrapT":10497}],"scene":0,"scenes":[{"nodes":[0]}],"textures":[{"sampler":0,"source":0},{"sampler":0,"source":1},{"sampler":0,"source":2},{"sampler":0,"source":3}]}